<?xml version="1.0" encoding="UTF-8"?>
<svg id="Ebene_1" data-name="Ebene 1" xmlns="http://www.w3.org/2000/svg" version="1.1" viewBox="0 0 340.2 340.2">
  <defs>
    <style>
      .cls-1 {
        fill: #b61527;
      }

      .cls-1, .cls-2, .cls-3 {
        stroke-width: 0px;
      }

      .cls-2 {
        fill: #002045;
      }

      .cls-3 {
        fill: #fff;
        fill-rule: evenodd;
      }
    </style>
  </defs>
  <rect class="cls-1" y="0" width="170.1" height="340.2"/>
  <rect class="cls-2" x="170.1" y="0" width="170.1" height="340.2"/>
  <g>
    <path class="cls-3" d="M158.7,210.1l10.7,16.3c-5.8,5.3-15.4,10.4-20.2,2-4.3-7.5,3-14.3,9.5-18.4h0ZM161.5,190.6h.3c4-3.8,7-6.2,7-10.4s-3-7.2-6.5-6.9c-3.1.2-5.7,2.9-5.7,6.5s2.2,6.6,4.9,10.8h0ZM193.4,202.1h-10.3c-.4,3.1-.9,4.8-1.9,7.7-.8,2.3-1.3,3.5-2.4,5.6h-.6l-8.8-13.2v-1.1c6.1-4.2,12.2-10.4,11.9-19.8-.3-12.2-8.2-19.6-17.8-19.6s-17.3,7.3-17.5,18.7c-.1,7.4,3.6,14.3,7.3,17.1v.6c-8,4.6-18.1,14.1-17.1,26.2,1.1,13.3,8.9,20.9,21,20.9s13.7-3.1,19.9-9.5h.3s5,7.7,5,7.7h13.8l-10.9-17.5v-.6c2.3-3.7,3.5-6.1,5-10.3,1.7-4.8,2.3-7.6,2.9-12.7h0Z"/>
    <path class="cls-3" d="M88.7,206.2v37.3s-35.9,0-35.9,0V95.1h57.3c15,0,27.2,12.2,27.2,27.2v56.7c0,15-12.2,27.2-27.2,27.2h-21.5ZM95.3,189.9c4.2,0,7.5-3.4,7.5-7.5v-60.5c0-4.2-3.4-7.5-7.5-7.5h-6.7v75.5h6.7Z"/>
    <path class="cls-3" d="M287.3,194.1v25.5c0,13.2-10.8,23.9-23.9,23.9h-36.9c-13.2,0-23.9-10.7-23.9-23.9v-100.7c0-13.2,10.7-23.9,23.9-23.9h36.9c13.2,0,23.9,10.7,23.9,23.9v25h-34.5v-20c0-5.3-3.7-9.5-8.3-9.5h0c-4.6,0-8.3,4.3-8.3,9.5v88.6c0,5.3,3.7,9.5,8.3,9.5h0c4.6,0,8.3-4.3,8.3-9.5v-18.4h34.6Z"/>
  </g>
</svg>