<?xml version="1.0" encoding="UTF-8"?><svg id="Ebene_1" xmlns="http://www.w3.org/2000/svg" xmlns:xlink="http://www.w3.org/1999/xlink" viewBox="0 0 548.27 472.99"><defs><style>.cls-1{clip-path:url(#clippath);}.cls-2,.cls-3{fill:none;}.cls-2,.cls-4,.cls-5,.cls-6{stroke-width:0px;}.cls-3{stroke:#002045;stroke-miterlimit:10;stroke-width:28.34px;}.cls-4{fill:#ffec00;}.cls-5{fill:#002045;}.cls-6{fill:#fff;}</style><clipPath id="clippath"><rect class="cls-2" x="177.8" y="120.77" width="340.16" height="340.16"/></clipPath></defs><g class="cls-1"><rect class="cls-5" x="177.8" y="120.77" width="340.16" height="340.16"/><g id="V"><path class="cls-6" d="M348.41,74.87s-102.32,197.2-106.87,205.88c-4.39-8.84-87.87-175.19-87.87-175.19h-56.42l122.4,228.46h41.96L404.14,74.87h-55.73Z"/></g><g id="G"><path class="cls-4" d="M261.42,351.75c0,71.42,68.86,121.24,167.46,121.24,33.86,0,84.9-6.4,116.91-20.48l2.48-1.12v-117.81h-116.38v38.19h67.89v52.52c-17.86,6.62-43.7,10.5-71.76,10.5-64.79,0-115.46-36.46-115.46-83.04s47.05-83.06,111.96-83.06c33.93,0,73.85,7.39,96.04,22.84l7.93,5.64,17.69-33.03-5.79-4.38c-26.7-19.97-63.52-29.33-115.88-29.33-94.48,0-163.1,51.05-163.1,121.33"/><path class="cls-3" d="M261.42,351.75c0,71.42,68.86,121.24,167.46,121.24,33.86,0,84.9-6.4,116.91-20.48l2.48-1.12v-117.81h-116.38v38.19h67.89v52.52c-17.86,6.62-43.7,10.5-71.76,10.5-64.79,0-115.46-36.46-115.46-83.04s47.05-83.06,111.96-83.06c33.93,0,73.85,7.39,96.04,22.84l7.93,5.64,17.69-33.03-5.79-4.38c-26.7-19.97-63.52-29.33-115.88-29.33-94.48,0-163.1,51.05-163.1,121.33"/><path class="cls-6" d="M261.42,351.75c0,71.42,68.86,121.24,167.46,121.24,33.86,0,84.9-6.4,116.91-20.48l2.48-1.12v-117.81h-116.38v38.19h67.89v52.52c-17.86,6.62-43.7,10.5-71.76,10.5-64.79,0-115.46-36.46-115.46-83.04s47.05-83.06,111.96-83.06c33.93,0,73.85,7.39,96.04,22.84l7.93,5.64,17.69-33.03-5.79-4.38c-26.7-19.97-63.52-29.33-115.88-29.33-94.48,0-163.1,51.05-163.1,121.33"/></g><rect class="cls-6" width="502.34" height="120.77"/></g></svg>